===========Visit DUSTorrents.com for more Exclusives==============

Visit DusTorrents.com for more exclusives....

DusTorrents.com a Complete FreeLeech Site!! Registrations are absolutely FREE!!

Register by visiting..... www.dustorrents.com

========================================================
[CENTER][B][FONT=Comic Sans MS][SIZE=5][COLOR="#FF0000"]Murder 2 (2011) 720p DvD RiP X264 5.1 AC3 SuB [Team DUS][/COLOR][/SIZE][/FONT][/B]

[img]http://img651.imageshack.us/img651/8982/dusanni3newwwwwwwww.png[/img]

[img]http://www.deccanchronicle.com/sites/default/files/imagecache/article_vertical/article-images/murder2-.jpg.crop_display.jpg[/img][/CENTER]

[CODE]General
[B][COLOR="#FF0000"]Source                           : DvD 9 @ DUS Warehouse lol
Ripper                           : Dee [Team DUS]
Note                             : Site WaterMaker, Anniversary of Team Dus, Enjoyz ;)[/COLOR][/B]
Unique ID                        : 205477192302364625812374170120330935136 (0x9A9577BEC02A3BEF98E02E8605B3FB60)
Complete name                    : D:\Ripping\murder 2\VTS_05_1-muxed.mkv
Format                           : Matroska
Format version                   : Version 2
File size                        : 2.05 GiB
Duration                         : 2h 6mn
Overall bit rate                 : 2 323 Kbps
Encoded date                     : UTC 2011-08-07 05:17:56
Writing application              : mkvmerge v4.8.0 ('I Got The...') built on May 24 2011 03:12:58
Writing library                  : libebml v1.2.0 + libmatroska v1.1.0

Video
ID                               : 1
Format                           : AVC
Format/Info                      : Advanced Video Codec
Format profile                   : High@L3.1
Format settings, CABAC           : Yes
Format settings, ReFrames        : 5 frames
Codec ID                         : V_MPEG4/ISO/AVC
Duration                         : 2h 6mn
Bit rate                         : 1 873 Kbps
Width                            : 1 280 pixels
Height                           : 544 pixels
Display aspect ratio             : 2.35:1
Frame rate                       : 23.976 fps
Color space                      : YUV
Chroma subsampling               : 4:2:0
Bit depth                        : 8 bits
Scan type                        : Progressive
Bits/(Pixel*Frame)               : 0.112
Stream size                      : 1.61 GiB (79%)
Writing library                  : x264 core 115 r1995 c1e60b9
Encoding settings                : cabac=1 / ref=5 / deblock=1:-1:-1 / analyse=0x3:0x113 / me=umh / subme=6 / psy=1 / psy_rd=1.00:0.00 / mixed_ref=1 / me_range=16 / chroma_me=1 / trellis=2 / 8x8dct=1 / cqm=0 / deadzone=21,11 / fast_pskip=1 / chroma_qp_offset=-2 / threads=12 / sliced_threads=0 / nr=0 / decimate=1 / interlaced=0 / bluray_compat=0 / constrained_intra=0 / bframes=3 / b_pyramid=2 / b_adapt=2 / b_bias=0 / direct=3 / weightb=1 / open_gop=0 / weightp=2 / keyint=250 / keyint_min=23 / scenecut=40 / intra_refresh=0 / rc_lookahead=40 / rc=2pass / mbtree=1 / bitrate=1873 / ratetol=1.0 / qcomp=0.60 / qpmin=10 / qpmax=51 / qpstep=4 / cplxblur=20.0 / qblur=0.5 / ip_ratio=1.40 / aq=1:1.00
Language                         : English

Audio
ID                               : 2
Format                           : AC-3
Format/Info                      : Audio Coding 3
Mode extension                   : CM (complete main)
Codec ID                         : A_AC3
Duration                         : 2h 6mn
Bit rate mode                    : Constant
Bit rate                         : 448 Kbps
Channel(s)                       : 6 channels
Channel positions                : Front: L C R, Side: L R, LFE
Sampling rate                    : 48.0 KHz
Bit depth                        : 16 bits
Compression mode                 : Lossy
Stream size                      : 405 MiB (19%)[/CODE]

[center][img]http://img21.imageshack.us/img21/3431/5vh6rom324kkccccthg.gif[/img]

[img]http://img543.imageshack.us/img543/175/11191862.png[/img]

[img]http://img683.imageshack.us/img683/7825/vts051muxedmkvsnapshot0.png[/img]

[img]http://img197.imageshack.us/img197/7825/vts051muxedmkvsnapshot0.png[/img]

[img]http://img191.imageshack.us/img191/7825/vts051muxedmkvsnapshot0.png[/img]

[img]http://img190.imageshack.us/img190/7825/vts051muxedmkvsnapshot0.png[/img]

[img]http://img37.imageshack.us/img37/7825/vts051muxedmkvsnapshot0.png[/img]

[img]http://img194.imageshack.us/img194/7825/vts051muxedmkvsnapshot0.png[/img]

[img]http://img546.imageshack.us/img546/7825/vts051muxedmkvsnapshot0.png[/img]

[img]http://img35.imageshack.us/img35/7825/vts051muxedmkvsnapshot0.png[/img]

[img]http://img827.imageshack.us/img827/7825/vts051muxedmkvsnapshot0.png[/img]

[B][COLOR="#FF0000"][SIZE=5][FONT=Comic Sans MS]Enjoy. Seeding @ 1Gbps. Many More Rips To Come Just Keep Counting LOL[/FONT][/SIZE][/COLOR][/B][/center]
===========Visit DUSTorrents.com for more Exclusives==============

Visit DusTorrents.com for more exclusives....

DusTorrents.com a Complete FreeLeech Site!! Registrations are absolutely FREE!!

Register by visiting..... www.dustorrents.com

========================================================